<svg width="32" height="32" viewBox="0 0 32 32" fill="none" xmlns="http://www.w3.org/2000/svg">
<rect width="32" height="32" fill="black"/>
<path fill-rule="evenodd" clip-rule="evenodd" d="M11.7472 10.7111C11.7471 10.7401 11.741 13.7778 10.4975 15.3937C9.25218 17.0118 5.52476 17.0174 5.5 17.0174V17.6937C5.52477 17.6937 9.25228 17.6991 10.4975 19.3174C11.747 20.9411 11.7472 24 11.7472 24H12.2675C12.2675 24 12.2677 20.9411 13.5171 19.3174C14.7633 17.6979 18.4954 17.6937 18.5146 17.6937V17.0174C18.4954 17.0174 14.7634 17.013 13.5171 15.3937C12.2737 13.7778 12.2675 10.7402 12.2675 10.7111H11.7472ZM10.4047 8L10.857 9.64754H13.3086V10.7126C13.3086 10.716 13.3089 10.7221 13.3091 10.7309C13.3093 10.7486 13.3095 10.7772 13.3106 10.815C13.3127 10.8907 13.3171 11.0042 13.326 11.1466C13.3439 11.4325 13.3799 11.8294 13.4511 12.2704C13.6001 13.1939 13.8789 14.1429 14.3358 14.7367C14.498 14.9475 14.7903 15.1625 15.2314 15.3537C15.6637 15.5409 16.1688 15.6751 16.6707 15.7683C17.1683 15.8607 17.635 15.9075 17.9789 15.9311C18.15 15.9427 18.2884 15.9485 18.3821 15.9513C18.4288 15.9528 18.4642 15.9535 18.4868 15.9539H19.5558V18.7567H18.5112C18.5064 18.7568 18.4982 18.7571 18.4868 18.7572C18.4642 18.7575 18.4288 18.7584 18.3821 18.7598C18.2884 18.7626 18.15 18.7683 17.9789 18.7801C17.635 18.8036 17.1683 18.8504 16.6707 18.9428C16.1688 19.0359 15.6637 19.1702 15.2314 19.3575C14.7904 19.5486 14.498 19.7636 14.3358 19.9744C14.168 20.1924 14.0239 20.4581 13.9019 20.753L14.7925 24H22.1126L26.5 8H24.2678L21.425 18.9027L18.6939 8H10.4047Z" fill="white"/>
</svg>
